<mxfile host="65bd71144e">
    <diagram id="7A7XxiyWo1xZoHhqrIlD" name="Page-1">
        <mxGraphModel dx="1616" dy="941" grid="1" gridSize="10" guides="1" tooltips="1" connect="1" arrows="1" fold="1" page="1" pageScale="1" pageWidth="850" pageHeight="1100" math="0" shadow="0">
            <root>
                <mxCell id="0"/>
                <mxCell id="1" parent="0"/>
                <mxCell id="4" value="Trafic Signal" style="swimlane;fontSize=18;startSize=50;verticalAlign=middle;" vertex="1" parent="1">
                    <mxGeometry x="310" y="40" width="200" height="140" as="geometry"/>
                </mxCell>
                <mxCell id="6" value="Method" style="text;html=1;resizable=0;autosize=1;align=center;verticalAlign=middle;points=[];fillColor=none;strokeColor=none;rounded=0;fontSize=18;" vertex="1" parent="4">
                    <mxGeometry x="60" y="100" width="80" height="30" as="geometry"/>
                </mxCell>
                <mxCell id="5" value="Atrribute" style="text;html=1;resizable=0;autosize=1;align=center;verticalAlign=middle;points=[];fillColor=none;strokeColor=none;rounded=0;fontSize=18;" vertex="1" parent="4">
                    <mxGeometry x="60" y="50" width="80" height="30" as="geometry"/>
                </mxCell>
                <mxCell id="7" value="Trafic Light" style="swimlane;fontSize=18;startSize=50;verticalAlign=middle;" vertex="1" parent="1">
                    <mxGeometry x="310" y="270" width="200" height="179" as="geometry"/>
                </mxCell>
                <mxCell id="8" value="Method" style="text;html=1;resizable=0;autosize=1;align=center;verticalAlign=middle;points=[];fillColor=none;strokeColor=none;rounded=0;fontSize=18;" vertex="1" parent="7">
                    <mxGeometry x="60" y="130" width="80" height="30" as="geometry"/>
                </mxCell>
                <mxCell id="9" value="Atrribute" style="text;html=1;resizable=0;autosize=1;align=center;verticalAlign=middle;points=[];fillColor=none;strokeColor=none;rounded=0;fontSize=18;" vertex="1" parent="7">
                    <mxGeometry x="60" y="50" width="80" height="30" as="geometry"/>
                </mxCell>
                <mxCell id="10" value="Green Light" style="swimlane;fontSize=18;startSize=50;verticalAlign=middle;" vertex="1" parent="1">
                    <mxGeometry x="30" y="540" width="200" height="180" as="geometry"/>
                </mxCell>
                <mxCell id="11" value="Method" style="text;html=1;resizable=0;autosize=1;align=center;verticalAlign=middle;points=[];fillColor=none;strokeColor=none;rounded=0;fontSize=18;" vertex="1" parent="10">
                    <mxGeometry x="60" y="138" width="80" height="30" as="geometry"/>
                </mxCell>
                <mxCell id="12" value="Atrribute" style="text;html=1;resizable=0;autosize=1;align=center;verticalAlign=middle;points=[];fillColor=none;strokeColor=none;rounded=0;fontSize=18;" vertex="1" parent="10">
                    <mxGeometry x="60" y="58" width="80" height="30" as="geometry"/>
                </mxCell>
                <mxCell id="13" value="Red Light" style="swimlane;fontSize=18;startSize=50;verticalAlign=middle;" vertex="1" parent="1">
                    <mxGeometry x="320" y="540" width="200" height="180" as="geometry"/>
                </mxCell>
                <mxCell id="14" value="Method" style="text;html=1;resizable=0;autosize=1;align=center;verticalAlign=middle;points=[];fillColor=none;strokeColor=none;rounded=0;fontSize=18;" vertex="1" parent="13">
                    <mxGeometry x="60" y="138" width="80" height="30" as="geometry"/>
                </mxCell>
                <mxCell id="15" value="Atrribute" style="text;html=1;resizable=0;autosize=1;align=center;verticalAlign=middle;points=[];fillColor=none;strokeColor=none;rounded=0;fontSize=18;" vertex="1" parent="13">
                    <mxGeometry x="60" y="58" width="80" height="30" as="geometry"/>
                </mxCell>
                <mxCell id="16" value="Orange Light" style="swimlane;fontSize=18;startSize=50;verticalAlign=middle;" vertex="1" parent="1">
                    <mxGeometry x="600" y="540" width="200" height="180" as="geometry"/>
                </mxCell>
                <mxCell id="17" value="Method" style="text;html=1;resizable=0;autosize=1;align=center;verticalAlign=middle;points=[];fillColor=none;strokeColor=none;rounded=0;fontSize=18;" vertex="1" parent="16">
                    <mxGeometry x="60" y="138" width="80" height="30" as="geometry"/>
                </mxCell>
                <mxCell id="18" value="Atrribute" style="text;html=1;resizable=0;autosize=1;align=center;verticalAlign=middle;points=[];fillColor=none;strokeColor=none;rounded=0;fontSize=18;" vertex="1" parent="16">
                    <mxGeometry x="60" y="58" width="80" height="30" as="geometry"/>
                </mxCell>
                <mxCell id="19" value="" style="line;strokeWidth=2;html=1;fontSize=18;rotation=-90;" vertex="1" parent="1">
                    <mxGeometry x="377.35" y="235.05" width="65.32" height="10" as="geometry"/>
                </mxCell>
                <mxCell id="20" value="" style="html=1;whiteSpace=wrap;aspect=fixed;shape=isoRectangle;fontSize=18;" vertex="1" parent="1">
                    <mxGeometry x="384.7" y="190" width="50" height="30" as="geometry"/>
                </mxCell>
                <mxCell id="25" value="" style="shape=partialRectangle;whiteSpace=wrap;html=1;bottom=1;right=1;left=1;top=0;fillColor=none;routingCenterX=-0.5;fontSize=18;rotation=-180;" vertex="1" parent="1">
                    <mxGeometry x="135" y="484" width="580" height="66" as="geometry"/>
                </mxCell>
                <mxCell id="26" value="" style="line;strokeWidth=2;html=1;fontSize=18;rotation=-90;" vertex="1" parent="1">
                    <mxGeometry x="397.5" y="507.5" width="55" height="10" as="geometry"/>
                </mxCell>
                <mxCell id="27" value="" style="shape=flexArrow;endArrow=classic;html=1;fontSize=18;" edge="1" parent="1">
                    <mxGeometry width="50" height="50" relative="1" as="geometry">
                        <mxPoint x="424" y="480" as="sourcePoint"/>
                        <mxPoint x="424" y="449" as="targetPoint"/>
                    </mxGeometry>
                </mxCell>
            </root>
        </mxGraphModel>
    </diagram>
</mxfile>